<?xml version="1.0" encoding="UTF-8" standalone="no"?>
<svg
   xmlns:dc="http://purl.org/dc/elements/1.1/"
   xmlns:cc="http://creativecommons.org/ns#"
   xmlns:rdf="http://www.w3.org/1999/02/22-rdf-syntax-ns#"
   xmlns:svg="http://www.w3.org/2000/svg"
   xmlns="http://www.w3.org/2000/svg"
   viewBox="0 0 697.33331 202.66667"
   height="202.66667"
   width="697.33331"
   xml:space="preserve"
   id="svg2"
   version="1.1"><metadata
     id="metadata8"><rdf:RDF><cc:Work
         rdf:about=""><dc:format>image/svg+xml</dc:format><dc:type
           rdf:resource="http://purl.org/dc/dcmitype/StillImage" /></cc:Work></rdf:RDF></metadata><defs
     id="defs6"><clipPath
       id="clipPath24"
       clipPathUnits="userSpaceOnUse"><path
         id="path22"
         d="M 0,152 H 523 V 0 H 0 Z" /></clipPath></defs><g
     transform="matrix(1.3333333,0,0,-1.3333333,0,202.66667)"
     id="g10"><path
       id="path12"
       style="fill:#0e090d;fill-opacity:1;fill-rule:nonzero;stroke:none"
       d="M 0,0 H 523 V 152 H 0 Z" /><g
       transform="translate(34.2501,102.9167)"
       id="g14"><path
         id="path16"
         style="fill:#fffeff;fill-opacity:1;fill-rule:nonzero;stroke:none"
         d="M 0,0 V 17.833 L 27.5,-7.333 54.5,17.5 v -18 L 27.333,-25.333 Z" /></g><g
       id="g18"><g
         clip-path="url(#clipPath24)"
         id="g20"><g
           transform="translate(34.4166,100.0832)"
           id="g26"><path
             id="path28"
             style="fill:#fffeff;fill-opacity:1;fill-rule:nonzero;stroke:none"
             d="M 0,0 16.167,-15.167 V -34.5 l 6.166,-5.917 V -42 H 6.667 l -6.5,6.667 C 0.167,-35.333 0,-0.25 0,0" /></g><g
           transform="translate(88.6251,99.7502)"
           id="g30"><path
             id="path32"
             style="fill:#fffeff;fill-opacity:1;fill-rule:nonzero;stroke:none"
             d="m 0,0 -15.875,-14.375 v -20.5 l 6.75,-7 h 378.5 l 9.5,7.625 -6.5,54.167 -12,-50.667 H 0 Z" /></g><g
           transform="translate(118.1251,120.8752)"
           id="g34"><path
             id="path36"
             style="fill:#fffeff;fill-opacity:1;fill-rule:nonzero;stroke:none"
             d="M 0,0 C 0,0 -22.25,-0.875 -22.25,-23.062 -22.25,-45.292 0,-46.5 0,-46.5 v 11 c 0,0 -11.5,0.75 -11.5,13 0,9.75 11.5,11.5 11.5,11.5 z" /></g><g
           transform="translate(119.6251,120.8752)"
           id="g38"><path
             id="path40"
             style="fill:#fffeff;fill-opacity:1;fill-rule:nonzero;stroke:none"
             d="M 0,0 C 0,0 22.25,-0.875 22.25,-23.062 22.25,-45.292 0,-46.5 0,-46.5 v 11 c 0,0 11.5,0.75 11.5,13 C 11.5,-12.75 0,-11 0,-11 Z" /></g><g
           transform="translate(158.3751,75.3752)"
           id="g42"><path
             id="path44"
             style="fill:#fffeff;fill-opacity:1;fill-rule:nonzero;stroke:none"
             d="M 0,0 H -12 V 30.625 L 0.25,19.375 Z" /></g><g
           transform="translate(146.5831,107.8332)"
           id="g46"><path
             id="path48"
             style="fill:#fffeff;fill-opacity:1;fill-rule:nonzero;stroke:none"
             d="M 0,0 V 13.25 L 37.417,-20.917 V -34.083 Z" /></g><g
           transform="translate(171.6666,100.2502)"
           id="g50"><path
             id="path52"
             style="fill:#fffeff;fill-opacity:1;fill-rule:nonzero;stroke:none"
             d="M 0,0 V 19.417 H 12 V -10.917 Z" /></g><g
           transform="translate(207.7501,120.0002)"
           id="g54"><path
             id="path56"
             style="fill:#fffeff;fill-opacity:1;fill-rule:nonzero;stroke:none"
             d="m 0,0 c 0,0 -17.625,-0.5 -17.625,-13 0,-12.5 11.375,-13.375 14.25,-13.625 C -0.5,-26.875 7.75,-27.5 7.75,-31.5 c 0,-4 -5.833,-4.417 -5.833,-4.417 v -10.25 c 0,0 18.5,-0.333 18.5,12.917 0,13.25 -10.917,13.167 -15.584,13.833 -4.666,0.667 -10.166,0.334 -10.166,5.25 0,4.917 5.416,4.25 5.416,4.25 z" /></g><g
           transform="translate(190.0626,88.7502)"
           id="g58"><path
             id="path60"
             style="fill:#fffeff;fill-opacity:1;fill-rule:nonzero;stroke:none"
             d="m 0,0 h 11.688 c 0,0 0,-4.812 6.249,-4.625 V -15 C 17.937,-15 0,-16 0,0" /></g><g
           transform="translate(209.6251,110.2502)"
           id="g62"><path
             id="path64"
             style="fill:#fffeff;fill-opacity:1;fill-rule:nonzero;stroke:none"
             d="M 0,0 V 9.625 H 91.958 V -0.333 Z" /></g><path
           id="path66"
           style="fill:#fffeff;fill-opacity:1;fill-rule:nonzero;stroke:none"
           d="m 245.333,75.417 h -11.667 v 33.333 h 11.667 z" /><path
           id="path68"
           style="fill:#fffeff;fill-opacity:1;fill-rule:nonzero;stroke:none"
           d="M 263.667,75.417 H 252 v 26.561 h 11.667 z" /><path
           id="path70"
           style="fill:#fffeff;fill-opacity:1;fill-rule:nonzero;stroke:none"
           d="m 301.833,75.417 h -11.667 v 26.561 h 11.667 z" /><path
           id="path72"
           style="fill:#fffeff;fill-opacity:1;fill-rule:nonzero;stroke:none"
           d="m 265.053,102.114 h 14.951 v -9.185 h -14.951 z" /><path
           id="path74"
           style="fill:#fffeff;fill-opacity:1;fill-rule:nonzero;stroke:none"
           d="m 265.053,84.53 h 19.933 v -9.185 h -19.933 z" /><g
           transform="translate(303.4171,110.0002)"
           id="g76"><path
             id="path78"
             style="fill:#fffeff;fill-opacity:1;fill-rule:nonzero;stroke:none"
             d="M 0,0 V 9.833 H 10.333 C 17,9.833 24.25,7.25 24.25,-1.917 v -6 c 0,-1.333 -0.917,-10.916 -11.417,-10.916 H -0.25 v 9 H 8 c 1.666,0 5.166,0.833 5.166,5 0,4.291 -3.75,4.75 -5.166,4.75 -1.417,0 -7.875,-0.042 -8,0.083" /></g><g
           transform="translate(307.3751,89.5002)"
           id="g80"><path
             id="path82"
             style="fill:#fffeff;fill-opacity:1;fill-rule:nonzero;stroke:none"
             d="M 0,0 H 12.375 L 22,-14.5 H 8.625 Z" /></g><g
           transform="translate(334.0001,119.8752)"
           id="g84"><path
             id="path86"
             style="fill:#fffeff;fill-opacity:1;fill-rule:nonzero;stroke:none"
             d="M 0,0 H 11.625 V -32.875 L 6,-44.875 h -6.375 z" /></g><g
           transform="translate(365.0001,119.7502)"
           id="g88"><path
             id="path90"
             style="fill:#fffeff;fill-opacity:1;fill-rule:nonzero;stroke:none"
             d="M 0,0 -23.5,-44.625 H 8.333 L 4,-35.333 H -7.583 l 6.916,12.25 10.5,-21.834 H 21.5 Z" /></g><g
           transform="translate(371.5001,110.1667)"
           id="g92"><path
             id="path94"
             style="fill:#fffeff;fill-opacity:1;fill-rule:nonzero;stroke:none"
             d="m 0,0 -4.833,10.083 h 28.666 c 6,0 18.917,-4.5 18.917,-17.75 v -9.125 c 0,0 -1.125,-17.875 -16,-17.875 h -10.5 l -4.583,9.25 h 11.416 c 4,0 8.084,4.084 8.084,10.5 0,6.417 -0.25,14.75 -10.584,14.75 C 10.25,-0.167 0,-0.25 0,0" /></g><g
           transform="translate(412.6251,119.7502)"
           id="g96"><path
             id="path98"
             style="fill:#fffeff;fill-opacity:1;fill-rule:nonzero;stroke:none"
             d="M 0,0 H 13.875 L 28.5,-24.5 V -44.625 H 16.25 v 18.5 z" /></g><g
           transform="translate(435.1251,107.8752)"
           id="g100"><path
             id="path102"
             style="fill:#fffeff;fill-opacity:1;fill-rule:nonzero;stroke:none"
             d="M 0,0 7.125,-11.75 21.5,11.875 H 7.125 Z" /></g><path
           id="path104"
           style="fill:#d33454;fill-opacity:1;fill-rule:nonzero;stroke:none"
           d="m 34.5,26.125 h 2.125 v 21 H 34.5 Z" /><path
           id="path106"
           style="fill:#d33454;fill-opacity:1;fill-rule:nonzero;stroke:none"
           d="m 42.034,26.125 h 2.125 v 21 h -2.125 z" /><path
           id="path108"
           style="fill:#d33454;fill-opacity:1;fill-rule:nonzero;stroke:none"
           d="m 49.568,26.125 h 4.949 v 21 h -4.949 z" /><path
           id="path110"
           style="fill:#d33454;fill-opacity:1;fill-rule:nonzero;stroke:none"
           d="m 59.926,26.125 h 4.95 v 21 h -4.95 z" /><path
           id="path112"
           style="fill:#d33454;fill-opacity:1;fill-rule:nonzero;stroke:none"
           d="m 70.284,26.125 h 9.807 v 21 h -9.807 z" /><path
           id="path114"
           style="fill:#d33454;fill-opacity:1;fill-rule:nonzero;stroke:none"
           d="m 85.5,26.125 h 12.964 v 21 H 85.5 Z" /><path
           id="path116"
           style="fill:#d33454;fill-opacity:1;fill-rule:nonzero;stroke:none"
           d="m 467.945,26.125 h 2.125 v 21 h -2.125 z" /><path
           id="path118"
           style="fill:#d33454;fill-opacity:1;fill-rule:nonzero;stroke:none"
           d="m 460.411,26.125 h 2.125 v 21 h -2.125 z" /><path
           id="path120"
           style="fill:#d33454;fill-opacity:1;fill-rule:nonzero;stroke:none"
           d="m 450.053,26.125 h 4.949 v 21 h -4.949 z" /><path
           id="path122"
           style="fill:#d33454;fill-opacity:1;fill-rule:nonzero;stroke:none"
           d="m 439.694,26.125 h 4.95 v 21 h -4.95 z" /><path
           id="path124"
           style="fill:#d33454;fill-opacity:1;fill-rule:nonzero;stroke:none"
           d="m 424.48,26.125 h 9.807 v 21 h -9.807 z" /><path
           id="path126"
           style="fill:#d33454;fill-opacity:1;fill-rule:nonzero;stroke:none"
           d="m 406.106,26.125 h 12.965 v 21 h -12.965 z" /><g
           transform="translate(228.0001,47.1252)"
           id="g128"><path
             id="path130"
             style="fill:#d33454;fill-opacity:1;fill-rule:nonzero;stroke:none"
             d="m 0,0 h -125 v -21 h 125 48.57 125 V 0 h -125 z" /></g><g
           transform="translate(484.6817,118.7009)"
           id="g132"><path
             id="path134"
             style="fill:none;stroke:#fffeff;stroke-width:0.80299997;stroke-linecap:butt;stroke-linejoin:miter;stroke-miterlimit:10;stroke-dasharray:none;stroke-opacity:1"
             d="m 0,0 c 0,-4.104 -3.327,-7.432 -7.432,-7.432 -4.104,0 -7.432,3.328 -7.432,7.432 0,4.105 3.328,7.432 7.432,7.432 C -3.327,7.432 0,4.105 0,0 Z" /></g><g
           transform="translate(481.004,116.6457)"
           id="g136"><path
             id="path138"
             style="fill:#fffeff;fill-opacity:1;fill-rule:nonzero;stroke:none"
             d="m 0,0 c -0.468,-1.716 -1.6,-3.101 -3.783,-3.101 -2.438,0 -4.173,1.814 -4.173,5.071 0,2.672 1.423,5.148 4.29,5.148 2.477,0 3.49,-1.755 3.666,-3.12 h -0.994 c -0.293,1.131 -1.034,2.203 -2.692,2.203 -2.067,0 -3.237,-1.755 -3.237,-4.192 0,-2.321 1.092,-4.193 3.14,-4.193 1.424,0 2.281,0.722 2.789,2.184 z" /></g><g
           transform="translate(221.7179,28.6369)"
           id="g140"><path
             id="path142"
             style="fill:#fffeff;fill-opacity:1;fill-rule:nonzero;stroke:none"
             d="m 0,0 c -0.777,-0.752 -1.918,-1.214 -4.225,-1.214 -2.743,0 -4.223,0.704 -4.903,1.918 C -9.565,1.53 -9.59,2.598 -9.59,3.496 v 1.02 h 4.104 v -1.36 c 0,-0.388 0,-1.359 1.214,-1.359 1.165,0 1.31,0.655 1.31,1.189 0,0.704 -0.024,1.069 -0.194,1.36 -0.219,0.364 -0.631,0.655 -1.36,1.189 l -2.476,1.797 c -0.437,0.315 -0.874,0.606 -1.286,0.971 -0.704,0.655 -1.118,1.384 -1.118,3.229 0,0.267 0,0.801 0.098,1.481 0.072,0.606 0.267,2.209 1.99,2.962 0.923,0.412 2.283,0.509 3.253,0.509 0.778,0 1.482,-0.048 2.258,-0.218 1.408,-0.316 1.894,-1.069 2.161,-1.651 0.51,-1.141 0.437,-2.501 0.412,-3.715 h -3.908 v 1.214 c 0,0.874 -0.097,1.433 -1.165,1.433 -0.122,0 -0.389,0 -0.656,-0.194 -0.412,-0.291 -0.363,-0.899 -0.363,-1.335 0,-0.462 -0.025,-0.899 0.242,-1.263 0.097,-0.146 0.243,-0.267 0.534,-0.485 L -1.02,7.817 C -0.825,7.696 -0.292,7.356 0.194,6.871 0.874,6.191 1.189,5.438 1.189,3.594 1.189,2.258 1.044,0.996 0,0" /></g><g
           transform="translate(233.1485,41.8195)"
           id="g144"><path
             id="path146"
             style="fill:#fffeff;fill-opacity:1;fill-rule:nonzero;stroke:none"
             d="M 0,0 V -14.153 H -4.2 V 0 H -7.599 V 2.986 H 3.423 V 0 Z" /></g><g
           transform="translate(250.6241,30.4826)"
           id="g148"><path
             id="path150"
             style="fill:#fffeff;fill-opacity:1;fill-rule:nonzero;stroke:none"
             d="m 0,0 c -0.364,-1.797 -1.627,-3.083 -5.147,-3.083 -2.938,0 -4.492,0.922 -5.098,2.209 -0.413,0.874 -0.413,1.82 -0.413,2.743 v 12.454 h 4.127 V 1.408 c 0,-0.049 0,-0.511 0.122,-0.802 0.266,-0.704 0.995,-0.728 1.189,-0.728 0.121,0 0.412,0.024 0.704,0.194 0.51,0.268 0.51,0.753 0.51,1.263 V 14.323 H 0.146 V 1.99 C 0.146,1.82 0.17,0.801 0,0" /></g><g
           transform="translate(261.9571,40.2902)"
           id="g152"><path
             id="path154"
             style="fill:#fffeff;fill-opacity:1;fill-rule:nonzero;stroke:none"
             d="M 0,0 C 0,0.024 0.024,0.437 -0.048,0.68 -0.291,1.626 -1.335,1.554 -1.554,1.554 H -2.815 V -9.662 h 1.31 c 0.438,0 0.51,0.024 0.753,0.097 C -0.048,-9.371 0,-8.788 0,-8.206 Z m 3.399,-11.41 c -0.947,-1.141 -2.476,-1.214 -3.811,-1.214 h -6.434 v 17.14 h 6.264 c 0.121,0 1.214,0 1.918,-0.146 C 1.797,4.272 2.913,3.981 3.617,2.864 4.006,2.258 4.176,1.65 4.176,0.242 v -8.545 c 0,-1.068 -0.049,-2.233 -0.777,-3.107" /></g><path
           id="path156"
           style="fill:#fffeff;fill-opacity:1;fill-rule:nonzero;stroke:none"
           d="m 270.184,44.806 h 4.151 v -17.14 h -4.151 z" /><g
           transform="translate(285.5001,40.7023)"
           id="g158"><path
             id="path160"
             style="fill:#fffeff;fill-opacity:1;fill-rule:nonzero;stroke:none"
             d="m 0,0 c 0,0.364 0,0.413 -0.049,0.607 -0.194,0.729 -0.849,0.777 -1.457,0.777 -0.072,0 -0.51,0.024 -0.825,-0.146 C -2.913,0.947 -2.841,0.049 -2.841,0 v -8.788 c 0,-0.68 -0.049,-1.456 1.408,-1.456 0.074,0 0.535,0 0.85,0.145 C -0.049,-9.832 0,-9.298 0,-8.788 Z m 3.229,-11.531 c -0.777,-1.02 -1.991,-1.724 -4.565,-1.724 -1.554,0 -3.059,0.146 -4.272,1.214 -0.219,0.194 -0.704,0.655 -0.996,1.408 -0.291,0.704 -0.413,1.36 -0.413,2.841 v 7.064 c 0,1.214 0.098,2.185 0.802,3.229 1.116,1.65 2.938,1.942 4.782,1.942 1.481,0 2.962,-0.17 4.127,-1.189 C 2.985,2.986 3.52,2.452 3.836,1.53 4.127,0.656 4.127,-0.218 4.127,-1.116 v -6.555 c 0,-1.408 -0.024,-2.694 -0.898,-3.86" /></g></g></g></g></svg>